# xmcd
# 
# Track frame offsets:
#     150
#     20823
#     37161
#     47386
#     57786
#     81901
#     102035
#     118108
#     137089
#     155877
#     175646
#     197206
# 
# Disc length: 2719
# 
# Revision: 1
# Processed by: cddbd v1.5.2PL0 Copyright (c) Steve Scherf et al.
# Submitted via: fre:ac v1.0.17
# 
DISCID=a30a9d0c
DTITLE=Barry Bekker - Upon the Wings of a Lullabye
DYEAR=1999
DGENRE=New Age
TTITLE0=Prelude/Eensy Weensy Spider
TTITLE1=Old King Cole
TTITLE2=Lambs are Sleeping
TTITLE3=Nature's Goodnight
TTITLE4=On Wings of Song
TTITLE5=Sleep Sweet Babe
TTITLE6=Hush Little Baby
TTITLE7=All the World is Sleeping
TTITLE8=Golden Slumbers
TTITLE9=Cradle Song
TTITLE10=Gymnopedie No 1
TTITLE11=Twinkle Little Star
EXTD=YEAR: 1999
EXTT0=
EXTT1=
EXTT2=
EXTT3=
EXTT4=
EXTT5=
EXTT6=
EXTT7=
EXTT8=
EXTT9=
EXTT10=
EXTT11=
PLAYORDER=
